<svg width="1380" height="1380" viewBox="0 0 1380 1380" fill="none" xmlns="http://www.w3.org/2000/svg">
<circle cx="690" cy="690" r="690" fill="#4F46E5"/>
<path d="M146 424C67.6618 628.304 69.4063 744.872 146 956" stroke="black" stroke-width="10"/>
<path d="M1243 956C1321.34 751.696 1319.59 635.128 1243 424" stroke="black" stroke-width="10"/>
<path d="M352 222H902.442V432.766C902.442 438.289 906.919 442.766 912.442 442.766H1097V1097H352L352 222V222Z" stroke="black" stroke-width="10"/>
<path d="M904 220L1098 441" stroke="black" stroke-width="10"/>
<rect x="411.749" y="604.79" width="175.908" height="441.86" rx="5" stroke="black" stroke-width="10"/>
<path d="M533.433 701.781C533.433 724.563 517.2 741.967 498.411 741.967C479.622 741.967 463.389 724.563 463.389 701.781C463.389 678.999 479.622 661.595 498.411 661.595C517.2 661.595 533.433 678.999 533.433 701.781Z" stroke="black" stroke-width="10"/>
<rect x="465.972" y="795.861" width="67.4617" height="119.103" stroke="black" stroke-width="10"/>
<rect x="636.387" y="604.79" width="175.908" height="441.86" rx="5" stroke="black" stroke-width="10"/>
<path d="M758.072 701.781C758.072 724.563 741.839 741.967 723.05 741.967C704.261 741.967 688.028 724.563 688.028 701.781C688.028 678.999 704.261 661.595 723.05 661.595C741.839 661.595 758.072 678.999 758.072 701.781Z" stroke="black" stroke-width="10"/>
<rect x="690.61" y="795.861" width="67.4617" height="119.103" stroke="black" stroke-width="10"/>
<rect x="861.026" y="604.79" width="175.908" height="441.86" rx="5" stroke="black" stroke-width="10"/>
<path d="M982.711 701.781C982.711 724.563 966.478 741.967 947.689 741.967C928.9 741.967 912.667 724.563 912.667 701.781C912.667 678.999 928.9 661.595 947.689 661.595C966.478 661.595 982.711 678.999 982.711 701.781Z" stroke="black" stroke-width="10"/>
<rect x="915.25" y="795.861" width="67.4617" height="119.103" stroke="black" stroke-width="10"/>
<rect x="282" y="514.178" width="174.049" height="437.341" rx="5" transform="rotate(-90 282 514.178)" fill="#4F46E5" stroke="black" stroke-width="10"/>
<mask id="path-16-outside-1_404_53" maskUnits="userSpaceOnUse" x="377" y="385" width="231" height="83" fill="black">
<rect fill="white" x="377" y="385" width="231" height="83"/>
<path d="M383.581 466C382.114 466 380.881 465.5 379.881 464.5C378.881 463.5 378.381 462.267 378.381 460.8V393.1C378.381 391.567 378.881 390.333 379.881 389.4C380.881 388.4 382.114 387.9 383.581 387.9H401.681C407.414 387.9 412.614 388.867 417.281 390.8C422.014 392.667 426.114 395.367 429.581 398.9C433.048 402.367 435.714 406.467 437.581 411.2C439.448 415.933 440.381 421.167 440.381 426.9C440.381 432.633 439.448 437.9 437.581 442.7C435.714 447.433 433.048 451.567 429.581 455.1C426.114 458.567 422.014 461.267 417.281 463.2C412.614 465.067 407.414 466 401.681 466H383.581ZM388.781 456.8H401.681C407.281 456.8 412.214 455.533 416.481 453C420.814 450.4 424.214 446.867 426.681 442.4C429.148 437.867 430.381 432.7 430.381 426.9C430.381 421.033 429.148 415.867 426.681 411.4C424.214 406.933 420.814 403.433 416.481 400.9C412.214 398.367 407.281 397.1 401.681 397.1H388.781V456.8ZM490.848 467C484.981 467 479.615 466.033 474.748 464.1C469.881 462.1 465.681 459.333 462.148 455.8C458.681 452.2 455.981 447.967 454.048 443.1C452.115 438.167 451.148 432.767 451.148 426.9C451.148 421.033 452.115 415.667 454.048 410.8C455.981 405.933 458.681 401.733 462.148 398.2C465.681 394.6 469.881 391.833 474.748 389.9C479.615 387.9 484.981 386.9 490.848 386.9C496.715 386.9 502.048 387.9 506.848 389.9C511.715 391.833 515.915 394.6 519.448 398.2C522.981 401.733 525.715 405.933 527.648 410.8C529.581 415.667 530.548 421.033 530.548 426.9C530.548 432.767 529.581 438.167 527.648 443.1C525.715 447.967 522.981 452.2 519.448 455.8C515.915 459.333 511.715 462.1 506.848 464.1C502.048 466.033 496.715 467 490.848 467ZM490.848 457.6C495.181 457.6 499.148 456.833 502.748 455.3C506.415 453.7 509.581 451.533 512.248 448.8C514.915 446 516.948 442.733 518.348 439C519.815 435.267 520.548 431.233 520.548 426.9C520.548 422.567 519.815 418.533 518.348 414.8C516.948 411.067 514.915 407.833 512.248 405.1C509.581 402.3 506.415 400.133 502.748 398.6C499.148 397.067 495.181 396.3 490.848 396.3C486.515 396.3 482.515 397.067 478.848 398.6C475.248 400.133 472.115 402.3 469.448 405.1C466.848 407.833 464.815 411.067 463.348 414.8C461.881 418.533 461.148 422.567 461.148 426.9C461.148 431.233 461.881 435.267 463.348 439C464.815 442.733 466.848 446 469.448 448.8C472.115 451.533 475.248 453.7 478.848 455.3C482.515 456.833 486.515 457.6 490.848 457.6ZM579.885 467C574.485 467 569.418 466 564.685 464C560.018 461.933 555.918 459.1 552.385 455.5C548.918 451.833 546.185 447.567 544.185 442.7C542.251 437.833 541.285 432.567 541.285 426.9C541.285 421.3 542.251 416.1 544.185 411.3C546.185 406.433 548.918 402.2 552.385 398.6C555.918 394.933 560.018 392.067 564.685 390C569.351 387.933 574.418 386.9 579.885 386.9C585.018 386.9 589.418 387.567 593.085 388.9C596.818 390.233 600.551 392.433 604.285 395.5C604.818 395.9 605.218 396.333 605.485 396.8C605.818 397.2 606.018 397.633 606.085 398.1C606.218 398.5 606.285 399 606.285 399.6C606.285 400.867 605.818 401.933 604.885 402.8C604.018 403.6 602.951 404.067 601.685 404.2C600.418 404.267 599.185 403.833 597.985 402.9C595.518 400.767 592.951 399.133 590.285 398C587.685 396.867 584.218 396.3 579.885 396.3C575.951 396.3 572.251 397.1 568.785 398.7C565.318 400.3 562.251 402.5 559.585 405.3C556.985 408.1 554.951 411.367 553.485 415.1C552.018 418.767 551.285 422.7 551.285 426.9C551.285 431.167 552.018 435.167 553.485 438.9C554.951 442.567 556.985 445.8 559.585 448.6C562.251 451.4 565.318 453.6 568.785 455.2C572.251 456.733 575.951 457.5 579.885 457.5C583.285 457.5 586.485 456.933 589.485 455.8C592.551 454.6 595.485 452.967 598.285 450.9C599.485 450.033 600.651 449.667 601.785 449.8C602.985 449.867 603.985 450.333 604.785 451.2C605.585 452 605.985 453.133 605.985 454.6C605.985 455.267 605.851 455.933 605.585 456.6C605.318 457.2 604.918 457.767 604.385 458.3C600.785 461.167 596.918 463.333 592.785 464.8C588.718 466.267 584.418 467 579.885 467Z"/>
</mask>
<path d="M383.581 466C382.114 466 380.881 465.5 379.881 464.5C378.881 463.5 378.381 462.267 378.381 460.8V393.1C378.381 391.567 378.881 390.333 379.881 389.4C380.881 388.4 382.114 387.9 383.581 387.9H401.681C407.414 387.9 412.614 388.867 417.281 390.8C422.014 392.667 426.114 395.367 429.581 398.9C433.048 402.367 435.714 406.467 437.581 411.2C439.448 415.933 440.381 421.167 440.381 426.9C440.381 432.633 439.448 437.9 437.581 442.7C435.714 447.433 433.048 451.567 429.581 455.1C426.114 458.567 422.014 461.267 417.281 463.2C412.614 465.067 407.414 466 401.681 466H383.581ZM388.781 456.8H401.681C407.281 456.8 412.214 455.533 416.481 453C420.814 450.4 424.214 446.867 426.681 442.4C429.148 437.867 430.381 432.7 430.381 426.9C430.381 421.033 429.148 415.867 426.681 411.4C424.214 406.933 420.814 403.433 416.481 400.9C412.214 398.367 407.281 397.1 401.681 397.1H388.781V456.8ZM490.848 467C484.981 467 479.615 466.033 474.748 464.1C469.881 462.1 465.681 459.333 462.148 455.8C458.681 452.2 455.981 447.967 454.048 443.1C452.115 438.167 451.148 432.767 451.148 426.9C451.148 421.033 452.115 415.667 454.048 410.8C455.981 405.933 458.681 401.733 462.148 398.2C465.681 394.6 469.881 391.833 474.748 389.9C479.615 387.9 484.981 386.9 490.848 386.9C496.715 386.9 502.048 387.9 506.848 389.9C511.715 391.833 515.915 394.6 519.448 398.2C522.981 401.733 525.715 405.933 527.648 410.8C529.581 415.667 530.548 421.033 530.548 426.9C530.548 432.767 529.581 438.167 527.648 443.1C525.715 447.967 522.981 452.2 519.448 455.8C515.915 459.333 511.715 462.1 506.848 464.1C502.048 466.033 496.715 467 490.848 467ZM490.848 457.6C495.181 457.6 499.148 456.833 502.748 455.3C506.415 453.7 509.581 451.533 512.248 448.8C514.915 446 516.948 442.733 518.348 439C519.815 435.267 520.548 431.233 520.548 426.9C520.548 422.567 519.815 418.533 518.348 414.8C516.948 411.067 514.915 407.833 512.248 405.1C509.581 402.3 506.415 400.133 502.748 398.6C499.148 397.067 495.181 396.3 490.848 396.3C486.515 396.3 482.515 397.067 478.848 398.6C475.248 400.133 472.115 402.3 469.448 405.1C466.848 407.833 464.815 411.067 463.348 414.8C461.881 418.533 461.148 422.567 461.148 426.9C461.148 431.233 461.881 435.267 463.348 439C464.815 442.733 466.848 446 469.448 448.8C472.115 451.533 475.248 453.7 478.848 455.3C482.515 456.833 486.515 457.6 490.848 457.6ZM579.885 467C574.485 467 569.418 466 564.685 464C560.018 461.933 555.918 459.1 552.385 455.5C548.918 451.833 546.185 447.567 544.185 442.7C542.251 437.833 541.285 432.567 541.285 426.9C541.285 421.3 542.251 416.1 544.185 411.3C546.185 406.433 548.918 402.2 552.385 398.6C555.918 394.933 560.018 392.067 564.685 390C569.351 387.933 574.418 386.9 579.885 386.9C585.018 386.9 589.418 387.567 593.085 388.9C596.818 390.233 600.551 392.433 604.285 395.5C604.818 395.9 605.218 396.333 605.485 396.8C605.818 397.2 606.018 397.633 606.085 398.1C606.218 398.5 606.285 399 606.285 399.6C606.285 400.867 605.818 401.933 604.885 402.8C604.018 403.6 602.951 404.067 601.685 404.2C600.418 404.267 599.185 403.833 597.985 402.9C595.518 400.767 592.951 399.133 590.285 398C587.685 396.867 584.218 396.3 579.885 396.3C575.951 396.3 572.251 397.1 568.785 398.7C565.318 400.3 562.251 402.5 559.585 405.3C556.985 408.1 554.951 411.367 553.485 415.1C552.018 418.767 551.285 422.7 551.285 426.9C551.285 431.167 552.018 435.167 553.485 438.9C554.951 442.567 556.985 445.8 559.585 448.6C562.251 451.4 565.318 453.6 568.785 455.2C572.251 456.733 575.951 457.5 579.885 457.5C583.285 457.5 586.485 456.933 589.485 455.8C592.551 454.6 595.485 452.967 598.285 450.9C599.485 450.033 600.651 449.667 601.785 449.8C602.985 449.867 603.985 450.333 604.785 451.2C605.585 452 605.985 453.133 605.985 454.6C605.985 455.267 605.851 455.933 605.585 456.6C605.318 457.2 604.918 457.767 604.385 458.3C600.785 461.167 596.918 463.333 592.785 464.8C588.718 466.267 584.418 467 579.885 467Z" fill="black"/>
<path d="M379.881 464.5L379.174 465.207L379.174 465.207L379.881 464.5ZM379.881 389.4L380.563 390.131L380.576 390.119L380.588 390.107L379.881 389.4ZM417.281 390.8L416.898 391.724L416.906 391.727L416.914 391.73L417.281 390.8ZM429.581 398.9L428.867 399.6L428.874 399.607L429.581 398.9ZM437.581 411.2L438.511 410.833L438.511 410.833L437.581 411.2ZM437.581 442.7L438.511 443.067L438.513 443.062L437.581 442.7ZM429.581 455.1L430.288 455.807L430.295 455.8L429.581 455.1ZM417.281 463.2L417.652 464.129L417.659 464.126L417.281 463.2ZM388.781 456.8H387.781V457.8H388.781V456.8ZM416.481 453L416.991 453.86L416.995 453.857L416.481 453ZM426.681 442.4L427.556 442.883L427.559 442.878L426.681 442.4ZM426.681 411.4L425.805 411.883L425.805 411.883L426.681 411.4ZM416.481 400.9L415.97 401.76L415.976 401.763L416.481 400.9ZM388.781 397.1V396.1H387.781V397.1H388.781ZM383.581 465C382.368 465 381.393 464.598 380.588 463.793L379.174 465.207C380.369 466.402 381.86 467 383.581 467V465ZM380.588 463.793C379.783 462.988 379.381 462.012 379.381 460.8H377.381C377.381 462.521 377.979 464.012 379.174 465.207L380.588 463.793ZM379.381 460.8V393.1H377.381V460.8H379.381ZM379.381 393.1C379.381 391.807 379.791 390.851 380.563 390.131L379.199 388.669C377.97 389.815 377.381 391.327 377.381 393.1H379.381ZM380.588 390.107C381.393 389.302 382.368 388.9 383.581 388.9V386.9C381.86 386.9 380.369 387.498 379.174 388.693L380.588 390.107ZM383.581 388.9H401.681V386.9H383.581V388.9ZM401.681 388.9C407.3 388.9 412.368 389.847 416.898 391.724L417.664 389.876C412.86 387.886 407.528 386.9 401.681 386.9V388.9ZM416.914 391.73C421.521 393.547 425.501 396.17 428.867 399.6L430.295 398.2C426.727 394.563 422.508 391.786 417.648 389.87L416.914 391.73ZM428.874 399.607C432.24 402.973 434.832 406.956 436.651 411.567L438.511 410.833C436.596 405.977 433.855 401.76 430.288 398.193L428.874 399.607ZM436.651 411.567C438.466 416.169 439.381 421.276 439.381 426.9H441.381C441.381 421.057 440.429 415.697 438.511 410.833L436.651 411.567ZM439.381 426.9C439.381 432.523 438.466 437.665 436.649 442.338L438.513 443.062C440.429 438.135 441.381 432.743 441.381 426.9H439.381ZM436.651 442.333C434.832 446.945 432.237 450.965 428.867 454.4L430.295 455.8C433.858 452.169 436.597 447.921 438.511 443.067L436.651 442.333ZM428.874 454.393C425.505 457.762 421.518 460.389 416.903 462.274L417.659 464.126C422.51 462.144 426.723 459.372 430.288 455.807L428.874 454.393ZM416.909 462.272C412.376 464.085 407.305 465 401.681 465V467C407.524 467 412.852 466.049 417.652 464.128L416.909 462.272ZM401.681 465H383.581V467H401.681V465ZM388.781 457.8H401.681V455.8H388.781V457.8ZM401.681 457.8C407.437 457.8 412.551 456.496 416.991 453.86L415.97 452.14C411.877 454.57 407.125 455.8 401.681 455.8V457.8ZM416.995 453.857C421.481 451.166 425.005 447.503 427.556 442.883L425.805 441.917C423.423 446.23 420.147 449.634 415.966 452.143L416.995 453.857ZM427.559 442.878C430.115 438.181 431.381 432.846 431.381 426.9H429.381C429.381 432.554 428.18 437.553 425.802 441.922L427.559 442.878ZM431.381 426.9C431.381 420.89 430.116 415.552 427.556 410.917L425.805 411.883C428.179 416.181 429.381 421.177 429.381 426.9H431.381ZM427.556 410.917C425.004 406.295 421.477 402.663 416.986 400.037L415.976 401.763C420.151 404.204 423.424 407.572 425.805 411.883L427.556 410.917ZM416.991 400.04C412.551 397.404 407.437 396.1 401.681 396.1V398.1C407.125 398.1 411.877 399.33 415.97 401.76L416.991 400.04ZM401.681 396.1H388.781V398.1H401.681V396.1ZM387.781 397.1V456.8H389.781V397.1H387.781ZM474.748 464.1L474.368 465.025L474.379 465.029L474.748 464.1ZM462.148 455.8L461.428 456.494L461.434 456.5L461.441 456.507L462.148 455.8ZM454.048 443.1L453.117 443.465L453.119 443.469L454.048 443.1ZM454.048 410.8L453.119 410.431L453.119 410.431L454.048 410.8ZM462.148 398.2L461.434 397.5L461.434 397.5L462.148 398.2ZM474.748 389.9L475.117 390.829L475.128 390.825L474.748 389.9ZM506.848 389.9L506.463 390.823L506.471 390.826L506.479 390.829L506.848 389.9ZM519.448 398.2L518.734 398.9L518.741 398.907L519.448 398.2ZM527.648 410.8L528.577 410.431L528.577 410.431L527.648 410.8ZM527.648 443.1L528.577 443.469L528.579 443.465L527.648 443.1ZM519.448 455.8L520.155 456.507L520.162 456.5L519.448 455.8ZM506.848 464.1L507.222 465.028L507.228 465.025L506.848 464.1ZM502.748 455.3L503.14 456.22L503.148 456.217L502.748 455.3ZM512.248 448.8L512.964 449.498L512.972 449.49L512.248 448.8ZM518.348 439L517.417 438.634L517.414 438.642L517.412 438.649L518.348 439ZM518.348 414.8L517.412 415.151L517.414 415.158L517.417 415.166L518.348 414.8ZM512.248 405.1L511.524 405.79L511.532 405.798L512.248 405.1ZM502.748 398.6L502.356 399.52L502.362 399.523L502.748 398.6ZM478.848 398.6L478.462 397.677L478.456 397.68L478.848 398.6ZM469.448 405.1L468.724 404.41L468.723 404.411L469.448 405.1ZM469.448 448.8L468.715 449.48L468.724 449.489L468.732 449.498L469.448 448.8ZM478.848 455.3L478.442 456.214L478.452 456.218L478.462 456.223L478.848 455.3ZM490.848 466C485.093 466 479.853 465.052 475.117 463.171L474.379 465.029C479.376 467.015 484.87 468 490.848 468V466ZM475.128 463.175C470.377 461.223 466.29 458.528 462.855 455.093L461.441 456.507C465.073 460.139 469.386 462.977 474.368 465.025L475.128 463.175ZM462.868 455.106C459.496 451.604 456.865 447.483 454.977 442.731L453.119 443.469C455.098 448.451 457.867 452.796 461.428 456.494L462.868 455.106ZM454.979 442.735C453.096 437.93 452.148 432.655 452.148 426.9H450.148C450.148 432.878 451.133 438.403 453.117 443.465L454.979 442.735ZM452.148 426.9C452.148 421.145 453.096 415.905 454.977 411.169L453.119 410.431C451.133 415.428 450.148 420.922 450.148 426.9H452.148ZM454.977 411.169C456.865 406.419 459.494 402.333 462.862 398.9L461.434 397.5C457.869 401.133 455.098 405.448 453.119 410.431L454.977 411.169ZM462.862 398.9C466.294 395.404 470.375 392.713 475.117 390.829L474.379 388.971C469.388 390.953 465.069 393.796 461.434 397.5L462.862 398.9ZM475.128 390.825C479.861 388.88 485.097 387.9 490.848 387.9V385.9C484.866 385.9 479.368 386.92 474.368 388.975L475.128 390.825ZM490.848 387.9C496.6 387.9 501.8 388.88 506.463 390.823L507.233 388.977C502.296 386.92 496.83 385.9 490.848 385.9V387.9ZM506.479 390.829C511.221 392.713 515.302 395.404 518.734 398.9L520.162 397.5C516.527 393.796 512.208 390.953 507.217 388.971L506.479 390.829ZM518.741 398.907C522.173 402.34 524.833 406.423 526.719 411.169L528.577 410.431C526.596 405.444 523.789 401.127 520.155 397.493L518.741 398.907ZM526.719 411.169C528.6 415.905 529.548 421.145 529.548 426.9H531.548C531.548 420.922 530.563 415.428 528.577 410.431L526.719 411.169ZM529.548 426.9C529.548 432.655 528.6 437.93 526.717 442.735L528.579 443.465C530.563 438.403 531.548 432.878 531.548 426.9H529.548ZM526.719 442.731C524.833 447.479 522.171 451.598 518.734 455.1L520.162 456.5C523.792 452.802 526.597 448.455 528.577 443.469L526.719 442.731ZM518.741 455.093C515.306 458.528 511.219 461.223 506.468 463.175L507.228 465.025C512.211 462.977 516.523 460.139 520.155 456.507L518.741 455.093ZM506.474 463.172C501.808 465.052 496.604 466 490.848 466V468C496.826 468 502.288 467.015 507.222 465.028L506.474 463.172ZM490.848 458.6C495.302 458.6 499.403 457.812 503.14 456.22L502.356 454.38C498.893 455.855 495.061 456.6 490.848 456.6V458.6ZM503.148 456.217C506.927 454.567 510.203 452.328 512.964 449.498L511.532 448.102C508.96 450.738 505.902 452.833 502.348 454.383L503.148 456.217ZM512.972 449.49C515.735 446.589 517.839 443.206 519.284 439.351L517.412 438.649C516.057 442.26 514.095 445.411 511.524 448.11L512.972 449.49ZM519.279 439.366C520.795 435.507 521.548 431.348 521.548 426.9H519.548C519.548 431.118 518.835 435.027 517.417 438.634L519.279 439.366ZM521.548 426.9C521.548 422.452 520.795 418.293 519.279 414.434L517.417 415.166C518.835 418.773 519.548 422.682 519.548 426.9H521.548ZM519.284 414.449C517.838 410.592 515.732 407.239 512.964 404.402L511.532 405.798C514.098 408.428 516.058 411.542 517.412 415.151L519.284 414.449ZM512.972 404.41C510.207 401.507 506.925 399.263 503.134 397.677L502.362 399.523C505.905 401.004 508.955 403.093 511.524 405.79L512.972 404.41ZM503.14 397.68C499.403 396.088 495.302 395.3 490.848 395.3V397.3C495.061 397.3 498.893 398.045 502.356 399.52L503.14 397.68ZM490.848 395.3C486.394 395.3 482.262 396.089 478.462 397.677L479.234 399.523C482.768 398.045 486.635 397.3 490.848 397.3V395.3ZM478.456 397.68C474.732 399.266 471.486 401.511 468.724 404.41L470.172 405.79C472.744 403.089 475.764 401.001 479.24 399.52L478.456 397.68ZM468.723 404.411C466.029 407.243 463.928 410.589 462.417 414.434L464.279 415.166C465.701 411.545 467.667 408.423 470.173 405.789L468.723 404.411ZM462.417 414.434C460.901 418.293 460.148 422.452 460.148 426.9H462.148C462.148 422.682 462.861 418.773 464.279 415.166L462.417 414.434ZM460.148 426.9C460.148 431.348 460.901 435.507 462.417 439.366L464.279 438.634C462.861 435.027 462.148 431.118 462.148 426.9H460.148ZM462.417 439.366C463.927 443.209 466.026 446.584 468.715 449.48L470.181 448.12C467.67 445.416 465.702 442.257 464.279 438.634L462.417 439.366ZM468.732 449.498C471.49 452.325 474.73 454.564 478.442 456.214L479.254 454.386C475.766 452.836 472.739 450.741 470.164 448.102L468.732 449.498ZM478.462 456.223C482.262 457.811 486.394 458.6 490.848 458.6V456.6C486.635 456.6 482.768 455.855 479.234 454.377L478.462 456.223ZM564.685 464L564.28 464.914L564.288 464.918L564.296 464.921L564.685 464ZM552.385 455.5L551.658 456.187L551.665 456.194L551.671 456.2L552.385 455.5ZM544.185 442.7L543.255 443.069L543.26 443.08L544.185 442.7ZM544.185 411.3L543.26 410.92L543.257 410.926L544.185 411.3ZM552.385 398.6L551.665 397.906L551.664 397.906L552.385 398.6ZM564.685 390L564.28 389.086L564.28 389.086L564.685 390ZM593.085 388.9L592.743 389.84L592.748 389.842L593.085 388.9ZM604.285 395.5L603.65 396.273L603.667 396.287L603.685 396.3L604.285 395.5ZM605.485 396.8L604.617 397.296L604.66 397.373L604.717 397.44L605.485 396.8ZM606.085 398.1L605.095 398.241L605.108 398.331L605.136 398.416L606.085 398.1ZM604.885 402.8L605.563 403.535L605.565 403.533L604.885 402.8ZM601.685 404.2L601.737 405.199L601.763 405.197L601.789 405.195L601.685 404.2ZM597.985 402.9L597.331 403.656L597.35 403.673L597.371 403.689L597.985 402.9ZM590.285 398L589.885 398.917L589.894 398.92L590.285 398ZM559.585 405.3L558.861 404.61L558.852 404.62L559.585 405.3ZM553.485 415.1L554.413 415.471L554.416 415.466L553.485 415.1ZM553.485 438.9L552.554 439.266L552.556 439.271L553.485 438.9ZM559.585 448.6L558.852 449.281L558.861 449.29L559.585 448.6ZM568.785 455.2L568.366 456.108L568.373 456.111L568.38 456.115L568.785 455.2ZM589.485 455.8L589.838 456.736L589.849 456.731L589.485 455.8ZM598.285 450.9L597.699 450.089L597.691 450.095L598.285 450.9ZM601.785 449.8L601.668 450.793L601.699 450.797L601.729 450.798L601.785 449.8ZM604.785 451.2L604.05 451.878L604.064 451.893L604.078 451.907L604.785 451.2ZM605.585 456.6L606.499 457.006L606.506 456.989L606.513 456.971L605.585 456.6ZM604.385 458.3L605.008 459.082L605.052 459.047L605.092 459.007L604.385 458.3ZM592.785 464.8L592.45 463.858L592.446 463.859L592.785 464.8ZM579.885 466C574.612 466 569.678 465.024 565.074 463.079L564.296 464.921C569.158 466.976 574.358 468 579.885 468V466ZM565.09 463.086C560.537 461.07 556.542 458.308 553.098 454.8L551.671 456.2C555.294 459.892 559.499 462.797 564.28 464.914L565.09 463.086ZM553.111 454.813C549.733 451.239 547.065 447.078 545.11 442.32L543.26 443.08C545.304 448.055 548.103 452.427 551.658 456.187L553.111 454.813ZM545.114 442.331C543.231 437.591 542.285 432.451 542.285 426.9H540.285C540.285 432.683 541.272 438.076 543.255 443.069L545.114 442.331ZM542.285 426.9C542.285 421.417 543.231 416.345 545.112 411.674L543.257 410.926C541.272 415.855 540.285 421.183 540.285 426.9H542.285ZM545.11 411.68C547.064 406.924 549.73 402.798 553.105 399.294L551.664 397.906C548.106 401.602 545.305 405.943 543.26 410.92L545.11 411.68ZM553.105 399.294C556.548 395.721 560.541 392.929 565.09 390.914L564.28 389.086C559.495 391.205 555.288 394.146 551.665 397.906L553.105 399.294ZM565.09 390.914C569.62 388.908 574.548 387.9 579.885 387.9V385.9C574.289 385.9 569.083 386.959 564.28 389.086L565.09 390.914ZM579.885 387.9C584.936 387.9 589.214 388.557 592.743 389.84L593.427 387.96C589.622 386.577 585.1 385.9 579.885 385.9V387.9ZM592.748 389.842C596.353 391.129 599.987 393.264 603.65 396.273L604.92 394.727C601.116 391.603 597.284 389.338 593.421 387.958L592.748 389.842ZM603.685 396.3C604.134 396.637 604.432 396.973 604.617 397.296L606.353 396.304C606.004 395.694 605.502 395.163 604.885 394.7L603.685 396.3ZM604.717 397.44C604.944 397.713 605.057 397.977 605.095 398.241L607.075 397.959C606.979 397.289 606.692 396.687 606.253 396.16L604.717 397.44ZM605.136 398.416C605.224 398.681 605.285 399.066 605.285 399.6H607.285C607.285 398.934 607.212 398.319 607.033 397.784L605.136 398.416ZM605.285 399.6C605.285 400.587 604.935 401.389 604.204 402.067L605.565 403.533C606.701 402.478 607.285 401.146 607.285 399.6H605.285ZM604.206 402.065C603.511 402.707 602.651 403.093 601.58 403.205L601.789 405.195C603.252 405.041 604.525 404.493 605.563 403.535L604.206 402.065ZM601.632 403.201C600.651 403.253 599.648 402.927 598.599 402.111L597.371 403.689C598.721 404.74 600.185 405.28 601.737 405.199L601.632 403.201ZM598.639 402.144C596.103 399.951 593.449 398.258 590.676 397.08L589.894 398.92C592.453 400.008 594.933 401.583 597.331 403.656L598.639 402.144ZM590.684 397.083C587.91 395.874 584.29 395.3 579.885 395.3V397.3C584.146 397.3 587.46 397.86 589.885 398.917L590.684 397.083ZM579.885 395.3C575.811 395.3 571.968 396.13 568.366 397.792L569.204 399.608C572.535 398.07 576.092 397.3 579.885 397.3V395.3ZM568.366 397.792C564.783 399.446 561.613 401.72 558.861 404.61L560.309 405.99C562.89 403.28 565.853 401.154 569.204 399.608L568.366 397.792ZM558.852 404.62C556.163 407.516 554.064 410.89 552.554 414.734L554.416 415.466C555.839 411.843 557.807 408.684 560.318 405.98L558.852 404.62ZM552.556 414.729C551.039 418.521 550.285 422.581 550.285 426.9H552.285C552.285 422.819 552.997 419.013 554.413 415.471L552.556 414.729ZM550.285 426.9C550.285 431.284 551.039 435.409 552.554 439.266L554.416 438.534C552.997 434.925 552.285 431.05 552.285 426.9H550.285ZM552.556 439.271C554.067 443.048 556.165 446.387 558.852 449.28L560.318 447.92C557.804 445.213 555.836 442.085 554.413 438.529L552.556 439.271ZM558.861 449.29C561.613 452.18 564.783 454.454 568.366 456.108L569.204 454.292C565.853 452.746 562.89 450.62 560.309 447.91L558.861 449.29ZM568.38 456.115C571.979 457.706 575.817 458.5 579.885 458.5V456.5C576.085 456.5 572.524 455.76 569.189 454.285L568.38 456.115ZM579.885 458.5C583.398 458.5 586.719 457.914 589.838 456.735L589.131 454.865C586.251 455.953 583.171 456.5 579.885 456.5V458.5ZM589.849 456.731C593.002 455.498 596.012 453.82 598.879 451.705L597.691 450.095C594.958 452.113 592.101 453.702 589.12 454.869L589.849 456.731ZM598.87 451.711C599.929 450.946 600.85 450.697 601.668 450.793L601.902 448.807C600.453 448.636 599.04 449.121 597.699 450.089L598.87 451.711ZM601.729 450.798C602.675 450.851 603.43 451.207 604.05 451.878L605.52 450.522C604.54 449.46 603.294 448.882 601.84 448.802L601.729 450.798ZM604.078 451.907C604.639 452.469 604.985 453.317 604.985 454.6H606.985C606.985 452.95 606.53 451.531 605.492 450.493L604.078 451.907ZM604.985 454.6C604.985 455.13 604.879 455.671 604.656 456.229L606.513 456.971C606.823 456.196 606.985 455.403 606.985 454.6H604.985ZM604.671 456.194C604.461 456.666 604.137 457.134 603.678 457.593L605.092 459.007C605.699 458.4 606.175 457.734 606.499 457.006L604.671 456.194ZM603.762 457.518C600.244 460.319 596.474 462.43 592.45 463.858L593.119 465.742C597.362 464.237 601.325 462.015 605.008 459.082L603.762 457.518ZM592.446 463.859C588.493 465.285 584.308 466 579.885 466V468C584.528 468 588.943 467.248 593.124 465.741L592.446 463.859Z" fill="black" mask="url(#path-16-outside-1_404_53)"/>
</svg>
